REM DIRINDEX 1\2,1\3,1\4
REM DIRNAME cjc038,folder01,folder02,folder03
TITLE ""
FILE "DISC1Track21.mp3" MP3
  TRACK 01 AUDIO
    TITLE "4:cjc038_0759"
    INDEX 01 00:00:00
  TRACK 02 AUDIO
    TITLE "0:"
    INDEX 01 00:02:69
  TRACK 03 AUDIO
    TITLE "4:cjc038_0760"
    INDEX 01 00:03:12
  TRACK 04 AUDIO
    TITLE "0:"
    INDEX 01 00:05:59
  TRACK 05 AUDIO
    TITLE "2:cjc038_0761"
    INDEX 01 00:07:27
  TRACK 06 AUDIO
    TITLE "0:"
    INDEX 01 00:09:42
  TRACK 07 AUDIO
    TITLE "3:cjc038_0762"
    INDEX 01 00:09:49
  TRACK 08 AUDIO
    TITLE "0:"
    INDEX 01 00:11:56
  TRACK 09 AUDIO
    TITLE "2:cjc038_0763"
    INDEX 01 00:12:38
  TRACK 10 AUDIO
    TITLE "0:"
    INDEX 01 00:15:44
  TRACK 11 AUDIO
    TITLE "3:cjc038_0764"
    INDEX 01 00:15:54
  TRACK 12 AUDIO
    TITLE "0:"
    INDEX 01 00:18:54
  TRACK 13 AUDIO
    TITLE "2:cjc038_0765"
    INDEX 01 00:20:30
  TRACK 14 AUDIO
    TITLE "0:"
    INDEX 01 00:22:72
  TRACK 15 AUDIO
    TITLE "3:cjc038_0766"
    INDEX 01 00:23:06
  TRACK 16 AUDIO
    TITLE "0:"
    INDEX 01 00:25:41
  TRACK 17 AUDIO
    TITLE "2:cjc038_0767"
    INDEX 01 00:26:20
  TRACK 18 AUDIO
    TITLE "0:"
    INDEX 01 00:29:44
  TRACK 19 AUDIO
    TITLE "3:cjc038_0768"
    INDEX 01 00:29:54
  TRACK 20 AUDIO
    TITLE "0:"
    INDEX 01 00:32:74
  TRACK 21 AUDIO
    TITLE "2:cjc038_0769"
    INDEX 01 00:33:50
  TRACK 22 AUDIO
    TITLE "0:"
    INDEX 01 00:36:23
  TRACK 23 AUDIO
    TITLE "3:cjc038_0770"
    INDEX 01 00:36:38
  TRACK 24 AUDIO
    TITLE "0:"
    INDEX 01 00:38:71
  TRACK 25 AUDIO
    TITLE "2:cjc038_0771"
    INDEX 01 00:39:54
  TRACK 26 AUDIO
    TITLE "0:"
    INDEX 01 00:44:65
  TRACK 27 AUDIO
    TITLE "3:cjc038_0772"
    INDEX 01 00:44:73
  TRACK 28 AUDIO
    TITLE "0:"
    INDEX 01 00:49:65
  TRACK 29 AUDIO
    TITLE "2:cjc038_0773"
    INDEX 01 00:50:54
  TRACK 30 AUDIO
    TITLE "0:"
    INDEX 01 00:53:74
  TRACK 31 AUDIO
    TITLE "3:cjc038_0774"
    INDEX 01 00:54:11
  TRACK 32 AUDIO
    TITLE "0:"
    INDEX 01 00:57:23
  TRACK 33 AUDIO
    TITLE "2:cjc038_0775"
    INDEX 01 00:57:72
  TRACK 34 AUDIO
    TITLE "0:"
    INDEX 01 01:03:53
  TRACK 35 AUDIO
    TITLE "3:cjc038_0776"
    INDEX 01 01:03:65
  TRACK 36 AUDIO
    TITLE "0:"
    INDEX 01 01:09:20
  TRACK 37 AUDIO
    TITLE "2:cjc038_0777"
    INDEX 01 01:11:11
  TRACK 38 AUDIO
    TITLE "0:"
    INDEX 01 01:13:47
  TRACK 39 AUDIO
    TITLE "3:cjc038_0778"
    INDEX 01 01:13:55
  TRACK 40 AUDIO
    TITLE "0:"
    INDEX 01 01:16:12
  TRACK 41 AUDIO
    TITLE "2:cjc038_0779"
    INDEX 01 01:16:69
  TRACK 42 AUDIO
    TITLE "0:"
    INDEX 01 01:19:44
  TRACK 43 AUDIO
    TITLE "3:cjc038_0780"
    INDEX 01 01:19:56
  TRACK 44 AUDIO
    TITLE "0:"
    INDEX 01 01:22:23
  TRACK 45 AUDIO
    TITLE "2:cjc038_0781"
    INDEX 01 01:23:07
  TRACK 46 AUDIO
    TITLE "0:"
    INDEX 01 01:26:30
  TRACK 47 AUDIO
    TITLE "3:cjc038_0782"
    INDEX 01 01:26:38
  TRACK 48 AUDIO
    TITLE "0:"
    INDEX 01 01:29:56
  TRACK 49 AUDIO
    TITLE "2:cjc038_0783"
    INDEX 01 01:30:34
  TRACK 50 AUDIO
    TITLE "0:"
    INDEX 01 01:34:42
  TRACK 51 AUDIO
    TITLE "3:cjc038_0784"
    INDEX 01 01:34:52
  TRACK 52 AUDIO
    TITLE "0:"
    INDEX 01 01:38:38
  TRACK 53 AUDIO
    TITLE "2:cjc038_0785"
    INDEX 01 01:39:21
  TRACK 54 AUDIO
    TITLE "0:"
    INDEX 01 01:43:43
  TRACK 55 AUDIO
    TITLE "3:cjc038_0786"
    INDEX 01 01:43:47
  TRACK 56 AUDIO
    TITLE "0:"
    INDEX 01 01:47:66
  TRACK 57 AUDIO
    TITLE "2:cjc038_0787"
    INDEX 01 01:48:40
  TRACK 58 AUDIO
    TITLE "0:"
    INDEX 01 01:51:11
  TRACK 59 AUDIO
    TITLE "3:cjc038_0788"
    INDEX 01 01:51:17
  TRACK 60 AUDIO
    TITLE "0:"
    INDEX 01 01:53:53
  TRACK 61 AUDIO
    TITLE "2:cjc038_0789"
    INDEX 01 01:54:35
  TRACK 62 AUDIO
    TITLE "0:"
    INDEX 01 01:58:29
  TRACK 63 AUDIO
    TITLE "3:cjc038_0790"
    INDEX 01 01:58:36
  TRACK 64 AUDIO
    TITLE "0:"
    INDEX 01 02:02:20
  TRACK 65 AUDIO
    TITLE "2:cjc038_0791"
    INDEX 01 02:03:00
  TRACK 66 AUDIO
    TITLE "0:"
    INDEX 01 02:05:62
  TRACK 67 AUDIO
    TITLE "3:cjc038_0792"
    INDEX 01 02:06:03
  TRACK 68 AUDIO
    TITLE "0:"
    INDEX 01 02:08:48
  TRACK 69 AUDIO
    TITLE "2:cjc038_0793"
    INDEX 01 02:09:26
  TRACK 70 AUDIO
    TITLE "0:"
    INDEX 01 02:12:21
  TRACK 71 AUDIO
    TITLE "3:cjc038_0794"
    INDEX 01 02:12:25
  TRACK 72 AUDIO
    TITLE "0:"
    INDEX 01 02:15:11
  TRACK 73 AUDIO
    TITLE "2:cjc038_0795"
    INDEX 01 02:15:66
  TRACK 74 AUDIO
    TITLE "0:"
    INDEX 01 02:18:33
  TRACK 75 AUDIO
    TITLE "3:cjc038_0796"
    INDEX 01 02:18:55
  TRACK 76 AUDIO
    TITLE "0:"
    INDEX 01 02:20:61
  TRACK 77 AUDIO
    TITLE "2:cjc038_0797"
    INDEX 01 02:21:51
  TRACK 78 AUDIO
    TITLE "0:"
    INDEX 01 02:28:26
  TRACK 79 AUDIO
    TITLE "3:cjc038_0798"
    INDEX 01 02:28:32
  TRACK 80 AUDIO
    TITLE "0:"
    INDEX 01 02:34:69
  TRACK 81 AUDIO
    TITLE "2:cjc038_0799"
    INDEX 01 02:35:51
  TRACK 82 AUDIO
    TITLE "0:"
    INDEX 01 02:40:41
  TRACK 83 AUDIO
    TITLE "3:cjc038_0800"
    INDEX 01 02:40:50
  TRACK 84 AUDIO
    TITLE "0:"
    INDEX 01 02:45:36
